<?xml version="1.0" encoding="UTF-8"?>
<svg id="Layer_1" data-name="Layer 1" xmlns="http://www.w3.org/2000/svg" xmlns:xlink="http://www.w3.org/1999/xlink" viewBox="0 0 35.57 32.78">
  <defs>
    <style>
      .cls-1 {
        fill: #107498;
      }

      .cls-1, .cls-2, .cls-3, .cls-4, .cls-5, .cls-6, .cls-7, .cls-8 {
        stroke-width: 0px;
      }

      .cls-9 {
        clip-path: url(#clippath);
      }

      .cls-2 {
        fill: none;
      }

      .cls-3 {
        fill: #1c4977;
      }

      .cls-4 {
        fill: #95c1d2;
      }

      .cls-5 {
        fill: #3b3b3c;
      }

      .cls-6 {
        fill: #4798b2;
      }

      .cls-7 {
        fill: #414042;
      }

      .cls-8 {
        fill: #fff;
      }
    </style>
    <clipPath id="clippath">
      <rect class="cls-2" x="11.45" y="6.78" width="14.5" height="14.57"/>
    </clipPath>
  </defs>
  <g class="cls-9">
    <path class="cls-1" d="M18.7,7.24c-3.48,0-6.3,2.83-6.3,6.33s2.82,6.33,6.3,6.33,6.3-2.83,6.3-6.33-2.82-6.33-6.3-6.33ZM21.77,13.7c-.04,1.65-1.41,2.81-3,2.83-.1,0-.18-.04-.23-.09-.33,0-.65-.05-.89-.13-.77-.24-1.29-.88-1.58-1.61-.28-.7-.43-1.56-.17-2.28.5-1.36,2.29-1.81,3.58-1.68.66.07,1.25.35,1.66.88.43.57.65,1.36.64,2.07Z"/>
    <path class="cls-5" d="M15.72,9.93c.56.09,1.33.28,2.17.72.84.44,1.4.95,1.65,1.2.54.53.89,1.06,1.12,1.46.12-.36.24-.81.28-1.33.1-1.27-.28-2.27-.53-2.8-.28-.13-.72-.29-1.26-.36-.25-.03-.92-.09-1.73.16-.83.25-1.4.69-1.7.96Z"/>
    <path class="cls-7" d="M20.36,9.13c.2.53.42,1.31.45,2.26.03.95-.14,1.69-.22,2.03-.19.73-.47,1.3-.7,1.7.37-.07.82-.19,1.29-.41,1.15-.54,1.83-1.37,2.16-1.85-.03-.31-.1-.77-.32-1.28-.1-.24-.38-.85-.99-1.44-.63-.6-1.29-.88-1.67-1.01Z"/>
    <path class="cls-5" d="M23.33,12.78c-.36.43-.93,1.01-1.73,1.5-.81.5-1.53.71-1.87.8-.73.19-1.36.23-1.82.22.24.29.56.62.99.93,1.03.74,2.08.93,2.67.99.26-.18.62-.47.96-.91.16-.2.55-.75.76-1.57.22-.84.13-1.56.05-1.96Z"/>
    <path class="cls-7" d="M21.66,17.16c-.56-.1-1.33-.3-2.16-.76-.83-.46-1.38-.98-1.63-1.23-.53-.54-.88-1.07-1.1-1.47-.13.35-.25.8-.3,1.33-.12,1.27.24,2.28.49,2.81.28.13.71.3,1.26.38.25.03.92.1,1.74-.13.84-.24,1.41-.67,1.71-.93Z"/>
    <path class="cls-5" d="M17.01,17.88c-.2-.53-.41-1.31-.44-2.26-.03-.95.14-1.69.23-2.03.19-.73.48-1.3.71-1.7-.37.07-.82.19-1.29.41-1.15.54-1.83,1.36-2.17,1.84.03.31.1.77.31,1.28.1.24.38.85.99,1.44.62.6,1.29.88,1.67,1.01Z"/>
    <path class="cls-7" d="M14.04,14.21c.37-.43.95-.99,1.76-1.47.82-.48,1.55-.68,1.89-.76.73-.18,1.37-.2,1.82-.18-.23-.3-.55-.63-.97-.95-1.01-.76-2.06-.97-2.65-1.04-.26.17-.63.45-.97.89-.16.2-.56.74-.79,1.56-.23.84-.16,1.56-.09,1.96Z"/>
  </g>
  <path class="cls-3" d="M.87,7.92c2.28.98,4.57,1.97,6.85,2.95-.29,1.18-.83,4.01.32,7.03.58,1.53,1.41,2.61,1.66,2.93.23.3,1.09,1.35,2.55,2.35.86.6,1.67.98,2.27,1.23-.98,2.28-1.96,4.56-2.94,6.83-1-.43-2.3-1.09-3.68-2.09-1.88-1.36-3.07-2.75-3.59-3.39-.39-.48-1.7-2.15-2.76-4.7C.25,17.96.06,15.33.03,14.62c-.05-.94-.09-3.02.52-5.53.12-.48.24-.88.32-1.17Z"/>
  <path class="cls-6" d="M15.56,24.78c-.91,2.32-1.82,4.64-2.73,6.96,1.45.5,3.77,1.11,6.67,1.04,2.8-.07,5.03-.74,6.44-1.29-.99-2.33-1.98-4.66-2.97-6.99-.54.2-1.27.42-2.17.57-1.3.21-2.31.14-2.88.1-.63-.04-1.44-.15-2.37-.38Z"/>
  <path class="cls-4" d="M23.62,24.2c1.12,2.27,2.24,4.54,3.36,6.81,1.42-.65,3.46-1.79,5.45-3.77,1.49-1.48,2.49-2.96,3.15-4.12-2.35-1.16-4.71-2.32-7.06-3.48-.24.4-.59.93-1.07,1.51-.4.49-.97,1.18-1.89,1.89-.44.34-1.09.78-1.94,1.17Z"/>
  <g>
    <path class="cls-3" d="M4.35,21.86c.65-.34,1.3-.67,1.95-1.01.09-.05.18-.1.28-.14.3-.15.5-.53.56-.96.06-.42.01-.99-.15-1.46-.17-.48-.4-.96-.72-1.27-.32-.31-.66-.5-1.01-.45-.72.11-1.44.22-2.17.33-.1.02-.2.03-.31.05-.33.05-.64.4-.77.93-.13.51-.11,1.34.12,2,.24.69.62,1.35,1.06,1.69.44.34.86.46,1.17.3h0Z"/>
    <path class="cls-3" d="M4.5,21.09c.42-.2.84-.4,1.27-.59.06-.03.12-.06.18-.08.3-.14.51-.52.59-.96.04-.22.05-.46.02-.72,0-.26-.05-.52-.13-.79-.15-.5-.37-1.02-.68-1.35-.31-.33-.65-.55-1-.51-.46.05-.93.1-1.39.15-.07,0-.13.01-.2.02-.33.04-.65.37-.81.88-.08.26-.13.56-.11.9-.01.33.03.69.14,1.05.2.68.56,1.33.98,1.68.42.35.83.47,1.15.32h0Z"/>
    <path class="cls-3" d="M4.89,22.3c.5-.29,1-.57,1.5-.86.07-.04.14-.08.21-.12.29-.17.47-.55.52-1,.04-.42-.04-1.01-.22-1.48-.19-.48-.45-.97-.78-1.27-.34-.3-.69-.49-1.03-.42-.57.11-1.13.22-1.7.33-.08.02-.16.03-.24.05-.33.06-.62.42-.74.95-.11.51-.06,1.32.19,1.96.26.67.67,1.3,1.12,1.62.45.32.87.42,1.18.24h0Z"/>
    <path class="cls-3" d="M5.32,22.72c.4-.25.79-.49,1.19-.74.06-.03.11-.07.17-.1.28-.18.44-.58.47-1.02.01-.23,0-.47-.07-.72-.03-.26-.11-.51-.22-.77-.21-.48-.49-.97-.84-1.26-.35-.3-.71-.47-1.05-.39-.45.1-.91.21-1.36.31l-.19.04c-.33.08-.6.45-.71.97-.05.27-.06.57,0,.91.03.33.11.68.26,1.02.28.65.71,1.26,1.17,1.56.46.3.88.38,1.18.19h0Z"/>
    <path class="cls-3" d="M6.04,22.89c.15-.1.29-.2.44-.29.02-.01.04-.03.06-.04.15-.09.26-.24.31-.44.09-.17.12-.37.11-.62,0-.24-.03-.48-.11-.74-.05-.26-.13-.53-.26-.79-.09-.17-.18-.33-.26-.5-.19-.31-.4-.57-.64-.78-.12-.08-.24-.17-.35-.25-.25-.14-.49-.18-.72-.12-.17.05-.34.09-.51.14-.02,0-.05.01-.07.02-.17.04-.32.15-.43.34-.13.14-.21.35-.25.63-.05.26-.04.56.02.88.03.32.13.65.29.98.11.21.23.41.35.62.26.37.55.66.85.85.15.07.29.14.44.2.3.09.54.06.74-.08h0Z"/>
    <path class="cls-3" d="M6.06,23.54c.32-.23.63-.46.95-.69.04-.03.09-.07.13-.1.14-.1.25-.25.3-.45.08-.17.11-.37.1-.61,0-.23-.04-.47-.12-.72-.05-.26-.15-.51-.28-.76-.09-.16-.19-.32-.28-.48-.2-.3-.41-.55-.65-.73-.36-.27-.74-.42-1.08-.32-.37.11-.75.23-1.12.34-.05.02-.11.03-.16.05-.17.05-.32.16-.41.36-.12.15-.2.36-.22.65-.04.27-.02.57.06.9.05.33.16.66.33.99.12.21.25.41.37.62.28.37.58.66.9.84.46.26.9.31,1.19.1h0Z"/>
    <path class="cls-3" d="M6.28,24.06c.4-.32.81-.63,1.21-.95.06-.04.11-.09.17-.13.26-.21.38-.62.36-1.06,0-.23-.05-.46-.14-.71-.06-.25-.16-.49-.3-.73-.26-.45-.58-.9-.96-1.15-.38-.25-.75-.38-1.08-.27-.48.17-.97.34-1.45.51-.07.02-.14.05-.21.07-.32.11-.55.51-.6,1.04-.02.27,0,.58.09.9.06.33.18.66.37.99.35.62.84,1.18,1.33,1.43.49.25.92.28,1.2.07h0Z"/>
    <path class="cls-3" d="M4.09,20.63c.53-.22,1.06-.45,1.59-.67.08-.03.15-.06.23-.1.31-.13.54-.49.63-.92.09-.42.08-1.01-.05-1.49-.13-.5-.33-1.01-.63-1.36-.3-.34-.62-.57-.98-.54-.57.04-1.15.08-1.72.12-.08,0-.16.01-.24.02-.33.02-.67.34-.85.86-.17.49-.21,1.31-.04,1.97.18.69.51,1.37.92,1.74.41.37.81.51,1.14.38h0Z"/>
    <path class="cls-3" d="M4.53,19.88c.16-.06.33-.13.49-.19.02,0,.05-.02.07-.03.16-.06.3-.18.4-.36.12-.14.2-.33.25-.57.06-.23.08-.47.06-.74.01-.27-.01-.54-.08-.83-.05-.18-.1-.36-.15-.55-.12-.35-.26-.65-.45-.91-.1-.11-.19-.22-.29-.33-.21-.19-.44-.29-.67-.28-.18,0-.35.01-.53.02-.02,0-.05,0-.07,0-.17,0-.35.07-.49.24-.16.11-.29.3-.38.56-.11.25-.17.54-.18.87-.04.32-.02.67.06,1.03.06.23.13.45.2.68.17.42.39.76.64,1.02.13.1.25.2.38.29.27.15.51.17.73.09h0Z"/>
    <path class="cls-3" d="M4.17,19.46c.27-.09.55-.19.82-.28.04-.01.08-.03.12-.04.17-.05.31-.16.42-.34.13-.14.21-.32.27-.56.07-.22.1-.47.09-.73.02-.26,0-.53-.05-.82-.05-.18-.09-.36-.13-.55-.1-.35-.24-.65-.41-.91-.09-.11-.19-.22-.28-.33-.21-.2-.43-.3-.66-.3-.29,0-.58,0-.87,0-.04,0-.08,0-.12,0-.17,0-.35.06-.5.22-.16.11-.3.29-.4.55-.12.25-.19.54-.21.87-.05.33-.04.68.03,1.04.05.23.11.46.18.69.15.43.36.78.61,1.05.12.11.25.21.37.31.26.16.51.2.73.12h0Z"/>
    <path class="cls-3" d="M6.99,24.14c.13-.11.27-.23.4-.34.02-.02.04-.03.06-.05.14-.11.23-.27.26-.48.07-.17.08-.38.05-.63-.02-.24-.08-.48-.19-.73-.08-.26-.19-.51-.34-.76-.11-.16-.21-.31-.32-.47-.22-.29-.46-.53-.72-.71-.13-.07-.25-.14-.38-.21-.26-.11-.51-.13-.73-.05-.16.06-.33.13-.49.19-.02,0-.05.02-.07.03-.16.06-.3.18-.39.38-.11.15-.18.37-.18.65-.02.27.01.56.11.88.07.32.2.64.39.95.13.2.27.39.41.58.3.34.61.6.94.76.15.06.3.11.46.16.3.05.55,0,.73-.15h0Z"/>
    <path class="cls-3" d="M3.63,19.02c.49-.15.98-.29,1.47-.44.07-.02.14-.04.21-.06.32-.1.58-.44.72-.86.07-.21.12-.45.12-.71.03-.26.03-.52-.01-.79-.08-.52-.22-1.06-.48-1.44-.26-.38-.56-.64-.91-.66-.51-.02-1.02-.04-1.54-.06-.07,0-.14,0-.22,0-.33-.01-.7.28-.93.76-.12.25-.21.54-.24.89-.06.33-.07.69-.01,1.07.1.7.36,1.41.73,1.82.36.41.75.59,1.09.49h0Z"/>
    <path class="cls-3" d="M6.89,24.96c.38-.34.76-.69,1.14-1.03.05-.05.11-.1.16-.15.25-.22.33-.65.28-1.09-.03-.23-.09-.46-.2-.7-.08-.25-.2-.49-.35-.72-.29-.44-.65-.86-1.04-1.09-.39-.23-.78-.34-1.1-.2-.47.2-.94.4-1.42.61-.07.03-.13.06-.2.09-.31.13-.52.55-.52,1.08,0,.27.04.58.16.9.09.33.23.65.44.97.39.6.93,1.13,1.44,1.35.51.22.94.23,1.2-.01h0Z"/>
    <path class="cls-3" d="M3.66,18.4c.38-.1.76-.2,1.13-.29.05-.01.11-.03.16-.04.17-.04.32-.14.44-.31.14-.12.24-.3.31-.53.09-.21.13-.45.15-.72.04-.26.05-.53.02-.81-.03-.18-.06-.37-.08-.55-.08-.35-.19-.67-.34-.94-.23-.39-.53-.68-.89-.71-.39-.03-.78-.06-1.17-.09-.06,0-.11,0-.17-.01-.17-.02-.35.03-.52.19-.17.1-.32.27-.45.53-.13.24-.23.53-.27.87-.07.33-.09.68-.05,1.06.04.24.08.48.13.72.12.45.3.83.53,1.11.33.41.73.61,1.07.53h0Z"/>
    <path class="cls-3" d="M2.97,17.95c.71-.16,1.43-.31,2.14-.47.1-.02.2-.04.3-.07.33-.07.62-.38.79-.78.17-.39.27-.96.23-1.45-.04-.51-.14-1.05-.37-1.43-.23-.39-.51-.67-.86-.71-.73-.09-1.45-.17-2.18-.26-.1-.01-.21-.02-.31-.04-.33-.04-.72.22-.99.71-.26.47-.45,1.28-.4,1.98.05.73.26,1.47.59,1.92.33.45.71.67,1.05.59h0Z"/>
    <path class="cls-3" d="M3.22,17.29c.5-.09,1.01-.18,1.51-.27.07-.01.14-.03.21-.04.33-.06.63-.37.82-.77.1-.2.17-.43.2-.69.06-.25.09-.51.08-.8-.02-.53-.1-1.09-.31-1.5-.21-.41-.48-.71-.83-.77-.51-.08-1.01-.16-1.52-.24-.07-.01-.14-.02-.21-.03-.33-.05-.73.2-1.02.65-.15.23-.27.52-.34.86-.1.33-.15.69-.14,1.07.02.72.2,1.45.51,1.9.31.45.68.68,1.03.62h0Z"/>
    <path class="cls-3" d="M3.02,16.72c.57-.08,1.14-.16,1.71-.24.08-.01.16-.02.24-.03.33-.05.64-.33.85-.73.19-.38.34-.96.34-1.47,0-.53-.05-1.08-.25-1.5-.2-.42-.45-.73-.8-.8-.57-.11-1.13-.23-1.7-.34-.08-.02-.16-.03-.24-.05-.33-.07-.74.16-1.04.62-.29.44-.55,1.23-.55,1.93,0,.73.14,1.47.44,1.94.3.46.65.71,1,.66h0Z"/>
    <path class="cls-3" d="M3.25,16.11c.39-.04.78-.08,1.16-.12.05,0,.11-.01.16-.02.17-.01.34-.09.48-.24.15-.1.28-.26.39-.48.12-.2.2-.43.25-.69.08-.25.13-.52.14-.81,0-.19,0-.37,0-.56-.02-.36-.08-.7-.19-.99-.17-.43-.42-.77-.76-.85-.38-.09-.76-.18-1.14-.27-.05-.01-.11-.02-.16-.04-.17-.05-.35-.02-.54.11-.18.07-.36.22-.52.46-.17.22-.31.5-.41.83-.12.32-.2.67-.22,1.05,0,.25,0,.49.01.73.05.47.17.88.35,1.19.27.46.63.72.98.69h0Z"/>
    <path class="cls-3" d="M7.2,25.41c.41-.4.83-.8,1.24-1.21.06-.06.12-.11.18-.17.24-.23.32-.66.25-1.1-.07-.42-.29-.98-.59-1.39-.31-.42-.67-.83-1.07-1.04-.4-.21-.78-.3-1.11-.15-.52.24-1.04.49-1.57.73-.07.03-.15.07-.22.1-.3.14-.5.56-.49,1.1.02.52.27,1.3.67,1.86.42.59.98,1.11,1.49,1.31.52.2.95.2,1.21-.05h0Z"/>
    <path class="cls-3" d="M7.86,25.52l.81-.85s.08-.08.11-.12c.13-.12.2-.29.21-.5.05-.18.04-.39-.01-.62-.04-.23-.12-.46-.25-.69-.1-.24-.23-.48-.41-.7-.12-.14-.24-.28-.35-.42-.25-.26-.5-.47-.77-.61-.4-.21-.8-.29-1.12-.12-.35.18-.7.36-1.04.53-.05.03-.1.05-.15.08-.16.07-.28.21-.35.43-.09.17-.13.39-.11.68,0,.27.08.57.21.88.1.31.27.63.5.92.16.19.31.37.48.55.34.32.69.55,1.03.68.5.18.95.15,1.19-.1h0Z"/>
    <path class="cls-3" d="M8.07,26.11c.39-.43.77-.86,1.16-1.29.05-.06.11-.12.16-.18.22-.25.27-.68.17-1.11-.1-.42-.36-.96-.68-1.34-.34-.4-.73-.78-1.14-.96-.41-.18-.8-.24-1.11-.07-.5.28-1.01.56-1.51.84l-.21.12c-.29.16-.46.59-.41,1.13.05.52.36,1.27.8,1.81.46.55,1.05,1.03,1.58,1.2.53.17.97.13,1.2-.14h0Z"/>
    <path class="cls-3" d="M3.37,15.56c.29-.02.59-.04.88-.06.04,0,.08,0,.13,0,.17,0,.34-.08.49-.22.16-.1.29-.26.41-.47.12-.2.22-.43.28-.69.09-.25.15-.52.17-.82,0-.19.01-.38.02-.57,0-.37-.06-.71-.15-1.02-.06-.13-.12-.27-.17-.41-.15-.25-.33-.42-.55-.48-.28-.08-.57-.16-.85-.24-.04-.01-.08-.02-.12-.03-.17-.05-.35-.04-.54.09-.18.06-.37.21-.54.44-.18.21-.33.48-.43.81-.14.31-.22.66-.25,1.03,0,.24-.01.49-.01.73.04.47.14.87.31,1.19.09.14.18.27.28.4.21.23.44.33.68.31h0Z"/>
    <path class="cls-3" d="M8.7,26.24l.75-.9s.07-.09.11-.13c.12-.13.18-.3.17-.51.04-.18.01-.39-.06-.62-.06-.23-.16-.45-.3-.67-.12-.24-.27-.46-.46-.67-.13-.13-.26-.26-.38-.4-.26-.24-.54-.43-.81-.55-.41-.18-.82-.23-1.12-.05-.33.2-.67.41-1,.61-.05.03-.1.06-.14.09-.15.08-.27.23-.32.45-.08.17-.11.4-.06.68.03.27.12.56.28.86.13.31.32.61.57.89.17.17.34.34.52.51.36.3.73.51,1.09.61.52.15.96.09,1.19-.19h0Z"/>
    <path class="cls-3" d="M9.29,26.5l.53-.7s.05-.07.07-.1c.11-.14.17-.31.15-.52.03-.18,0-.39-.09-.62-.07-.23-.18-.45-.34-.67-.13-.24-.29-.45-.5-.66-.14-.13-.27-.26-.41-.39-.28-.23-.56-.41-.84-.53-.14-.04-.27-.08-.41-.12-.28-.05-.52-.01-.72.12-.24.16-.48.32-.73.48-.03.02-.07.05-.1.07-.15.09-.26.24-.3.46-.08.18-.09.4-.04.68.04.27.14.55.31.84.14.3.34.59.6.86.17.17.35.33.54.49.37.28.74.46,1.1.56.16.02.33.04.49.06.31,0,.54-.11.69-.3h0Z"/>
    <path class="cls-3" d="M9.83,26.65c.1-.14.2-.29.3-.43.01-.02.03-.04.04-.06.11-.14.15-.32.13-.53.02-.19-.02-.39-.12-.62-.08-.23-.21-.45-.37-.67-.14-.23-.32-.45-.53-.66-.15-.12-.29-.25-.43-.38-.29-.23-.58-.4-.87-.52-.14-.04-.28-.07-.42-.11-.28-.04-.52,0-.72.14-.14.1-.29.2-.43.31-.02.01-.04.03-.06.04-.15.1-.25.25-.28.47-.07.18-.08.4-.02.68.04.26.15.54.33.83.15.29.35.57.62.83.18.16.36.31.55.46.38.26.76.43,1.12.51.16.02.33.03.49.04.31-.02.53-.13.67-.33h0Z"/>
  </g>
  <g>
    <path class="cls-8" d="M18.92,31.66c.04-1.42.08-2.84.11-4.26,0-.2.01-.4.02-.6,0-.16-.26-.17-.27-.01-.07,1.42-.14,2.84-.21,4.26,0,.2-.02.4-.03.6,0,.16.37.18.38.01h0Z"/>
    <path class="cls-8" d="M18.09,30.7c.07-.9.15-1.81.22-2.71.01-.13.02-.26.03-.38.01-.16-.27-.19-.29-.03-.09.9-.19,1.8-.28,2.7l-.04.38c-.02.16.34.2.35.03h0Z"/>
    <path class="cls-8" d="M19.85,31.15c-.03-1.12-.06-2.24-.1-3.36,0-.16,0-.32-.01-.48,0-.16-.28-.16-.28,0,0,1.12.01,2.24.02,3.36,0,.16,0,.32,0,.48,0,.16.37.16.36,0h0Z"/>
    <path class="cls-8" d="M20.64,30.8c-.07-.9-.14-1.81-.21-2.71-.01-.13-.02-.26-.03-.38-.01-.16-.3-.14-.29.02.05.9.1,1.81.15,2.71,0,.13.01.26.02.38,0,.16.37.14.36-.02h0Z"/>
    <path class="cls-8" d="M21.29,29.72c-.04-.34-.09-.68-.13-1.02,0-.05-.01-.1-.02-.14-.02-.16-.33-.13-.31.04.04.34.07.68.11,1.02,0,.05.01.1.02.14.02.16.35.12.33-.04h0Z"/>
    <path class="cls-8" d="M22.13,30.29c-.13-.75-.26-1.5-.4-2.24-.02-.11-.04-.21-.06-.32-.03-.16-.31-.11-.29.05.12.75.23,1.5.35,2.25.02.11.03.21.05.32.02.16.38.1.35-.06h0Z"/>
    <path class="cls-8" d="M22.94,30.41c-.22-.97-.44-1.95-.66-2.92-.03-.14-.06-.28-.09-.41-.04-.16-.31-.1-.28.06.2.98.4,1.96.6,2.93.03.14.06.28.08.41.03.16.39.08.35-.08h0Z"/>
    <path class="cls-8" d="M17.22,30.98c.15-1.11.3-2.22.44-3.34.02-.16.04-.31.06-.47.02-.16-.25-.2-.28-.04-.17,1.11-.34,2.22-.52,3.33-.02.16-.05.31-.07.47-.03.16.34.21.36.05h0Z"/>
    <path class="cls-8" d="M16.69,29.55c.06-.34.12-.67.18-1.01,0-.05.02-.1.03-.14.03-.16-.27-.22-.3-.06-.07.33-.14.67-.2,1,0,.05-.02.09-.03.14-.03.16.3.22.33.06h0Z"/>
    <path class="cls-8" d="M15.9,29.78c.13-.55.25-1.1.38-1.65.02-.08.04-.16.05-.23.04-.16-.25-.23-.29-.07-.14.55-.28,1.1-.42,1.64-.02.08-.04.15-.06.23-.04.16.3.24.34.08h0Z"/>
    <path class="cls-8" d="M23.38,29.28c-.09-.33-.18-.66-.27-.99-.01-.05-.03-.09-.04-.14-.04-.16-.34-.08-.3.08.08.33.17.66.25.99.01.05.02.09.04.14.04.16.37.07.33-.09h0Z"/>
    <path class="cls-8" d="M14.92,30.29c.27-.96.55-1.92.82-2.88.04-.14.08-.27.12-.41.04-.16-.23-.24-.27-.08-.3.95-.59,1.91-.89,2.86-.04.13-.08.27-.13.4-.05.16.3.26.35.1h0Z"/>
    <path class="cls-8" d="M24.46,30.2c-.31-.95-.62-1.9-.93-2.85-.04-.13-.09-.27-.13-.4-.05-.15-.32-.07-.28.09.29.96.58,1.91.87,2.87.04.14.08.27.12.41.05.16.4.05.35-.11h0Z"/>
    <path class="cls-8" d="M14.23,29.69c.25-.72.49-1.44.74-2.16.03-.1.07-.2.1-.3.05-.15-.22-.25-.28-.1-.26.71-.52,1.43-.79,2.14-.04.1-.07.2-.11.3-.06.15.28.27.34.12h0Z"/>
    <path class="cls-8" d="M13.05,30.41c.53-1.32,1.06-2.64,1.59-3.96.08-.19.15-.37.23-.56.06-.15-.19-.25-.25-.1-.56,1.31-1.12,2.61-1.68,3.92-.08.18-.16.37-.24.55-.06.15.29.3.35.15h0Z"/>
    <path class="cls-8" d="M12.53,29.4c.42-.9.84-1.81,1.26-2.71.06-.13.12-.26.18-.38.07-.15-.19-.27-.26-.13-.44.89-.88,1.79-1.32,2.68-.06.13-.12.25-.19.38-.07.15.26.31.33.16h0Z"/>
    <path class="cls-8" d="M11.66,29.2c.53-.99,1.05-1.98,1.58-2.97.07-.14.15-.28.22-.42.08-.14-.17-.28-.25-.14-.55.98-1.1,1.96-1.65,2.94-.08.14-.16.28-.23.42-.08.14.25.32.33.18h0Z"/>
    <path class="cls-8" d="M11.23,28.29c.39-.65.78-1.3,1.17-1.95.06-.09.11-.18.17-.28.08-.14-.17-.3-.26-.16-.41.64-.81,1.28-1.22,1.93l-.17.27c-.09.14.23.33.31.19h0Z"/>
    <path class="cls-8" d="M25.23,30.08c-.4-1.05-.8-2.1-1.2-3.15-.06-.15-.11-.3-.17-.44-.06-.15-.32-.06-.27.1.37,1.06.75,2.11,1.12,3.17.05.15.11.3.16.45.05.15.4.03.35-.13h0Z"/>
    <path class="cls-8" d="M25.66,29.09c-.3-.7-.61-1.39-.91-2.09-.04-.1-.09-.2-.13-.3-.07-.15-.33-.04-.27.12.29.7.58,1.41.86,2.11.04.1.08.2.12.3.06.15.39.01.33-.14h0Z"/>
    <path class="cls-8" d="M26.6,29.28c-.5-1.01-1-2.01-1.49-3.02-.07-.14-.14-.28-.21-.43-.07-.15-.32-.03-.25.12.47,1.02.95,2.03,1.42,3.05.07.14.13.29.2.43.07.15.4-.01.33-.16h0Z"/>
    <path class="cls-8" d="M10.73,27.61c.32-.48.64-.96.96-1.43.05-.07.09-.14.14-.2.09-.14-.17-.31-.26-.18-.33.47-.66.94-.99,1.41-.05.07-.09.13-.14.2-.09.13.21.34.3.2h0Z"/>
    <path class="cls-8" d="M27.02,28.37c-.37-.66-.74-1.33-1.11-1.99-.05-.09-.1-.19-.16-.28-.08-.14-.34,0-.26.14.35.67.71,1.34,1.06,2.01.05.09.1.19.15.28.08.14.39-.03.31-.17h0Z"/>
    <path class="cls-8" d="M27.58,27.64c-.3-.48-.6-.95-.91-1.43-.04-.07-.09-.14-.13-.2-.09-.14-.35.02-.26.16.29.48.58.97.87,1.45.04.07.08.14.12.21.08.14.39-.05.3-.19h0Z"/>
    <path class="cls-8" d="M27.98,26.92c-.2-.28-.39-.56-.59-.84-.03-.04-.06-.08-.08-.12-.09-.13-.35.04-.26.18.19.28.38.57.57.85.03.04.05.08.08.12.09.14.38-.06.29-.2h0Z"/>
  </g>
  <path class="cls-3" d="M9.76,20.9s-.03-.04-.05-.06c-.25-.32-1.08-1.41-1.66-2.93-1.15-3.02-.62-5.85-.32-7.03-2.28-.98-4.57-1.97-6.85-2.95-.09.28-.21.68-.32,1.17C-.07,11.61-.02,13.69.03,14.62c.04.71.22,3.34,1.53,6.46.77,1.84,1.66,3.22,2.25,4.02.08-.04.16-.09.24-.13.59-.52,1.23-.96,1.89-1.39.03-.02.05-.03.08-.04,1-.8,2.04-1.55,3.12-2.22.21-.15.41-.29.63-.43Z"/>
</svg>