<?xml version="1.0" encoding="utf-8"?>
<!-- Generator: Adobe Illustrator 28.1.0, SVG Export Plug-In . SVG Version: 6.00 Build 0)  -->
<svg version="1.1" id="Lag_1" xmlns="http://www.w3.org/2000/svg" xmlns:xlink="http://www.w3.org/1999/xlink" x="0px" y="0px"
	 viewBox="0 0 566.93 566.93" style="enable-background:new 0 0 566.93 566.93;" xml:space="preserve">
<style type="text/css">
	.st0{display:none;}
	.st1{display:inline;fill:#D6D7D5;}
	.st2{clip-path:url(#SVGID_00000151502295826601696380000007647859019913491094_);fill:#037299;}
	.st3{clip-path:url(#SVGID_00000151502295826601696380000007647859019913491094_);fill:#373636;}
	.st4{clip-path:url(#SVGID_00000151502295826601696380000007647859019913491094_);fill:#3C3C3B;}
	.st5{fill:#214272;}
	.st6{fill:#4999B7;}
	.st7{fill:#A2C7D8;}
	.st8{fill:#FFFFFF;}
</style>
<g>
	<g id="Background_00000029021763187600904220000003508210067196655288_" class="st0">
		<path class="st1" d="M523.81,12.24c0,221.42,0,221.42,0,442.85c-221.42,0-221.42,0-442.85,0c0-221.42,0-221.42,0-442.85
			C302.39,12.24,302.39,12.24,523.81,12.24z"/>
	</g>
	<g>
		<defs>
			<rect id="SVGID_1_" x="183.09" y="118.7" width="228.69" height="228.69"/>
		</defs>
		<clipPath id="SVGID_00000139976619453945792350000013059714910171926957_">
			<use xlink:href="#SVGID_1_"  style="overflow:visible;"/>
		</clipPath>
		<path style="clip-path:url(#SVGID_00000139976619453945792350000013059714910171926957_);fill:#037299;" d="M297.44,125.89
			c-54.84,0-99.29,44.45-99.29,99.29s44.45,99.29,99.29,99.29c54.84,0,99.29-44.45,99.29-99.29S352.28,125.89,297.44,125.89z
			 M345.87,227.2c-0.59,25.89-22.23,44.1-47.32,44.47c-1.62,0.02-2.84-0.56-3.68-1.46c-5.19-0.01-10.29-0.82-14.1-2.02
			c-12.11-3.79-20.32-13.83-24.94-25.27c-4.41-10.91-6.83-24.41-2.65-35.75c7.85-21.3,36.04-28.47,56.5-26.29
			c10.37,1.11,19.74,5.47,26.16,13.86C342.62,203.64,346.12,216.08,345.87,227.2z"/>
		<path style="clip-path:url(#SVGID_00000139976619453945792350000013059714910171926957_);fill:#373636;" d="M250.46,168.06
			c8.79,1.39,21.05,4.4,34.29,11.32c13.28,6.94,22.04,14.96,25.97,18.81c8.46,8.31,14.11,16.59,17.74,22.84
			c1.96-5.59,3.77-12.65,4.43-20.9c1.59-19.89-4.42-35.68-8.38-44.01c-4.47-2.04-11.29-4.58-19.94-5.6
			c-3.99-0.47-14.58-1.36-27.35,2.45C264.11,156.86,255.18,163.79,250.46,168.06z"/>
		<path style="clip-path:url(#SVGID_00000139976619453945792350000013059714910171926957_);fill:#3C3C3B;" d="M323.58,155.56
			c3.13,8.33,6.57,20.48,7.08,35.41c0.51,14.98-2.13,26.56-3.54,31.87c-3.05,11.46-7.46,20.46-11.11,26.7
			c5.83-1.06,12.86-2.96,20.37-6.46c18.08-8.43,28.85-21.45,34.14-29.01c-0.43-4.89-1.59-12.08-4.97-20.11
			c-1.56-3.71-6.01-13.35-15.62-22.58C340.05,161.9,329.61,157.55,323.58,155.56z"/>
		<path style="clip-path:url(#SVGID_00000139976619453945792350000013059714910171926957_);fill:#373636;" d="M370.43,212.84
			c-5.72,6.82-14.61,15.79-27.35,23.57c-12.79,7.81-24.17,11.2-29.49,12.58c-11.48,2.98-21.49,3.56-28.71,3.45
			c3.79,4.56,8.9,9.74,15.64,14.56c16.23,11.6,32.86,14.58,42.04,15.47c4.05-2.78,9.74-7.32,15.07-14.21
			c2.46-3.18,8.67-11.8,11.98-24.7C373,230.3,371.66,219.08,370.43,212.84z"/>
		<path style="clip-path:url(#SVGID_00000139976619453945792350000013059714910171926957_);fill:#3C3C3B;" d="M344.04,281.49
			c-8.77-1.53-20.98-4.74-34.1-11.88c-13.16-7.16-21.8-15.32-25.66-19.23c-8.33-8.44-13.84-16.82-17.36-23.13
			c-2.05,5.56-3.98,12.59-4.77,20.83c-1.91,19.86,3.83,35.75,7.66,44.14c4.43,2.12,11.22,4.76,19.85,5.93
			c3.98,0.54,14.55,1.6,27.38-2C330.22,292.46,339.26,285.68,344.04,281.49z"/>
		<path style="clip-path:url(#SVGID_00000139976619453945792350000013059714910171926957_);fill:#373636;" d="M270.79,292.8
			c-3.12-8.34-6.53-20.49-7.02-35.42c-0.49-14.98,2.18-26.55,3.6-31.86c3.07-11.46,7.5-20.45,11.16-26.68
			c-5.83,1.05-12.87,2.94-20.38,6.43c-18.1,8.4-28.89,21.4-34.19,28.95c0.42,4.89,1.57,12.08,4.93,20.12
			c1.55,3.71,5.99,13.36,15.58,22.6C254.33,286.43,264.76,290.8,270.79,292.8z"/>
		<path style="clip-path:url(#SVGID_00000139976619453945792350000013059714910171926957_);fill:#3C3C3B;" d="M223.93,235.25
			c5.85-6.71,14.92-15.49,27.82-23.02c12.94-7.55,24.39-10.72,29.74-11.99c11.54-2.75,21.55-3.13,28.78-2.88
			c-3.7-4.63-8.71-9.92-15.35-14.87c-16-11.92-32.57-15.23-41.73-16.31c-4.11,2.7-9.88,7.13-15.35,13.91
			c-2.52,3.13-8.9,11.62-12.47,24.46C221.71,217.74,222.82,228.99,223.93,235.25z"/>
	</g>
</g>
<path class="st5" d="M16.2,136.59c36.02,15.45,72.04,30.91,108.06,46.36c-4.62,18.48-13.06,62.91,5.12,110.26
	c9.2,23.97,22.29,41.02,26.25,46.02c3.68,4.64,17.23,21.23,40.14,36.93c13.63,9.34,26.26,15.41,35.81,19.33
	c-15.45,35.74-30.91,71.49-46.36,107.23c-15.82-6.75-36.28-17.07-58.06-32.79c-29.68-21.41-48.49-43.21-56.59-53.19
	c-6.1-7.51-26.77-33.73-43.57-73.69C6.4,294.1,3.51,252.8,2.9,241.69c-0.8-14.7-1.45-47.34,8.2-86.82
	C12.96,147.28,14.82,141,16.2,136.59z"/>
<path class="st6" d="M247.85,401.05c-14.38,36.39-28.75,72.78-43.13,109.17c22.87,7.85,59.53,17.37,105.24,16.26
	c44.18-1.08,79.32-11.66,101.54-20.26c-15.59-36.57-31.18-73.14-46.77-109.71c-8.47,3.09-20.08,6.63-34.2,8.87
	c-20.48,3.25-36.43,2.22-45.36,1.59C275.29,406.27,262.51,404.69,247.85,401.05z"/>
<path class="st7" d="M375.03,391.9c17.64,35.62,35.28,71.24,52.92,106.85c22.34-10.18,54.59-28.17,86.01-59.18
	c23.44-23.15,39.24-46.46,49.62-64.72c-37.14-18.22-74.29-36.45-111.43-54.67c-3.8,6.23-9.33,14.55-16.84,23.74
	c-6.25,7.64-15.31,18.59-29.75,29.66C398.56,378.95,388.41,385.79,375.03,391.9z"/>
<g>
	<g>
		<g>
			<path class="st8" d="M301.81,508.68c0.2-8.53,0.4-17.06,0.61-25.59c0.32-13.57,0.64-27.14,0.96-40.71
				c0.07-3.08,0.15-6.17,0.22-9.25c0.08-3.23-5.17-3.43-5.33-0.2c-0.44,8.52-0.88,17.04-1.32,25.56c-0.7,13.56-1.4,27.11-2.1,40.67
				c-0.16,3.08-0.32,6.16-0.48,9.24C294.2,511.62,301.73,511.91,301.81,508.68L301.81,508.68z"/>
		</g>
		<g>
			<path class="st8" d="M288.72,493.85c0.42-5.43,0.84-10.85,1.25-16.28c0.66-8.6,1.32-17.2,1.99-25.8c0.15-1.98,0.3-3.96,0.46-5.94
				c0.25-3.22-5.35-3.73-5.69-0.52c-0.57,5.41-1.14,10.83-1.71,16.24c-0.9,8.58-1.8,17.16-2.71,25.73
				c-0.21,1.97-0.42,3.95-0.62,5.92C281.36,496.42,288.48,497.08,288.72,493.85L288.72,493.85z"/>
		</g>
		<g>
			<path class="st8" d="M316.23,500.66c-0.21-6.73-0.42-13.46-0.63-20.19c-0.34-10.68-0.67-21.36-1.01-32.04
				c-0.08-2.46-0.15-4.92-0.23-7.38c-0.1-3.22-5.57-3.14-5.56,0.1c0.02,6.73,0.05,13.47,0.07,20.2c0.04,10.69,0.07,21.37,0.11,32.06
				c0.01,2.46,0.02,4.92,0.03,7.38C309.02,504.02,316.33,503.89,316.23,500.66L316.23,500.66z"/>
		</g>
		<g>
			<path class="st8" d="M328.65,495.33c-0.44-5.43-0.88-10.85-1.32-16.28c-0.7-8.6-1.39-17.19-2.09-25.79
				c-0.16-1.98-0.32-3.96-0.48-5.93c-0.26-3.22-5.91-2.84-5.74,0.38c0.29,5.44,0.58,10.87,0.87,16.31
				c0.46,8.61,0.91,17.23,1.37,25.84c0.11,1.98,0.21,3.96,0.32,5.95C321.74,499.03,328.92,498.55,328.65,495.33L328.65,495.33z"/>
		</g>
		<g>
			<path class="st8" d="M338.71,478.53c-0.68-5.26-1.36-10.51-2.04-15.77c-0.1-0.74-0.19-1.49-0.29-2.23
				c-0.17-1.34-1.71-2.31-3.34-2.12c-1.64,0.19-2.91,1.47-2.77,2.82c0.53,5.27,1.07,10.55,1.6,15.82c0.08,0.75,0.15,1.49,0.23,2.24
				c0.14,1.35,1.79,2.34,3.6,2.13C337.5,481.21,338.88,479.88,338.71,478.53L338.71,478.53z"/>
		</g>
		<g>
			<path class="st8" d="M351.85,487.3c-2.07-11.62-4.15-23.25-6.22-34.87c-0.29-1.63-0.58-3.26-0.87-4.89
				c-0.57-3.18-6.25-2.25-5.77,0.94c1.75,11.68,3.49,23.35,5.24,35.03c0.24,1.64,0.49,3.27,0.73,4.91
				C345.44,491.61,352.42,490.48,351.85,487.3L351.85,487.3z"/>
		</g>
		<g>
			<path class="st8" d="M364.51,489.16c-1.33-5.82-2.66-11.64-3.99-17.46c-2.12-9.28-4.24-18.57-6.36-27.85
				c-0.49-2.14-0.98-4.28-1.46-6.42c-0.72-3.15-6.13-2-5.5,1.17c1.16,5.86,2.33,11.71,3.49,17.57c1.86,9.34,3.72,18.68,5.57,28.02
				c0.43,2.15,0.86,4.3,1.28,6.45C358.18,493.8,365.23,492.31,364.51,489.16L364.51,489.16z"/>
		</g>
		<g>
			<path class="st8" d="M275.07,498.22c0.86-6.68,1.72-13.36,2.58-20.04c1.37-10.6,2.73-21.2,4.1-31.79
				c0.31-2.44,0.63-4.88,0.94-7.32c0.41-3.2-5-3.98-5.5-0.79c-1.05,6.65-2.1,13.31-3.14,19.96c-1.66,10.56-3.33,21.11-4.99,31.67
				c-0.38,2.43-0.77,4.86-1.15,7.29C267.42,500.39,274.66,501.43,275.07,498.22L275.07,498.22z"/>
		</g>
		<g>
			<path class="st8" d="M266.72,475.96c0.92-5.22,1.85-10.44,2.77-15.66c0.13-0.74,0.26-1.48,0.39-2.21
				c0.24-1.33-0.94-2.71-2.55-3.02c-1.62-0.31-3.21,0.53-3.49,1.86c-1.07,5.19-2.14,10.38-3.21,15.58c-0.15,0.73-0.3,1.47-0.45,2.2
				c-0.27,1.33,1.01,2.77,2.79,3.11C264.77,478.17,266.48,477.3,266.72,475.96L266.72,475.96z"/>
		</g>
		<g>
			<path class="st8" d="M254.47,479.57c1.93-8.54,3.86-17.07,5.79-25.61c0.28-1.23,0.56-2.47,0.84-3.7c0.71-3.15-5.03-4.53-5.83-1.4
				c-2.17,8.48-4.34,16.96-6.5,25.44c-0.31,1.22-0.63,2.45-0.94,3.67C247.02,481.09,253.76,482.72,254.47,479.57L254.47,479.57z"/>
		</g>
		<g>
			<path class="st8" d="M371.47,471.47c-1.41-5.11-2.82-10.22-4.23-15.33c-0.2-0.72-0.4-1.45-0.6-2.17
				c-0.36-1.31-2.02-2.04-3.62-1.62c-1.6,0.42-2.69,1.86-2.36,3.18c1.27,5.15,2.53,10.3,3.8,15.44c0.18,0.73,0.36,1.46,0.54,2.18
				c0.32,1.32,2.11,2.07,3.88,1.6C370.64,474.3,371.83,472.78,371.47,471.47L371.47,471.47z"/>
		</g>
		<g>
			<path class="st8" d="M239.15,487.56c1.61-5.75,3.23-11.5,4.84-17.24c2.58-9.17,5.15-18.33,7.73-27.5
				c0.59-2.11,1.19-4.22,1.78-6.34c0.87-3.11-4.49-4.7-5.46-1.62c-1.78,5.7-3.55,11.4-5.33,17.1c-2.83,9.09-5.67,18.18-8.5,27.27
				c-0.65,2.09-1.31,4.19-1.96,6.28C231.3,488.6,238.28,490.67,239.15,487.56L239.15,487.56z"/>
		</g>
		<g>
			<path class="st8" d="M388.23,485.79c-1.86-5.67-3.73-11.34-5.59-17.02c-2.97-9.05-5.95-18.09-8.92-27.14
				c-0.69-2.08-1.37-4.17-2.06-6.25c-1.01-3.07-6.4-1.38-5.48,1.71c1.7,5.72,3.41,11.44,5.11,17.17c2.72,9.13,5.44,18.25,8.15,27.38
				c0.63,2.1,1.25,4.2,1.88,6.31C382.25,491.05,389.24,488.86,388.23,485.79L388.23,485.79z"/>
		</g>
		<g>
			<path class="st8" d="M228.33,478.27c3.78-11.19,7.56-22.37,11.34-33.56c0.53-1.57,1.06-3.13,1.59-4.7c1.03-3.06-4.45-5-5.57-1.97
				c-4.09,11.07-8.19,22.15-12.28,33.22c-0.57,1.55-1.15,3.1-1.72,4.65C220.57,478.95,227.3,481.33,228.33,478.27L228.33,478.27z"/>
		</g>
		<g>
			<path class="st8" d="M209.9,489.54c3.15-7.93,6.3-15.86,9.44-23.79c5.01-12.62,10.02-25.24,15.03-37.86
				c1.14-2.87,2.28-5.73,3.41-8.6c1.19-3-3.73-5.04-5.01-2.07c-3.37,7.84-6.74,15.68-10.12,23.52
				c-5.36,12.47-10.73,24.94-16.09,37.41c-1.22,2.83-2.44,5.67-3.66,8.5C201.63,489.61,208.71,492.55,209.9,489.54L209.9,489.54z"/>
		</g>
		<g>
			<path class="st8" d="M201.78,473.83c2.49-5.43,4.98-10.85,7.47-16.28c3.97-8.65,7.94-17.31,11.91-25.96
				c0.91-1.99,1.83-3.99,2.74-5.98c1.35-2.93-3.78-5.38-5.21-2.48c-2.64,5.35-5.29,10.71-7.93,16.06
				c-4.22,8.54-8.43,17.08-12.65,25.61c-0.97,1.97-1.94,3.93-2.91,5.9C193.78,473.59,200.44,476.77,201.78,473.83L201.78,473.83z"/>
		</g>
		<g>
			<path class="st8" d="M188.21,470.83c3.13-5.97,6.25-11.93,9.38-17.9c4.96-9.46,9.92-18.93,14.88-28.39
				c1.14-2.18,2.29-4.36,3.43-6.54c1.5-2.86-3.44-5.54-5.02-2.73c-3.3,5.87-6.59,11.75-9.89,17.62
				c-5.23,9.32-10.46,18.64-15.69,27.95c-1.2,2.15-2.41,4.29-3.61,6.44C180.11,470.1,186.71,473.69,188.21,470.83L188.21,470.83z"/>
		</g>
		<g>
			<path class="st8" d="M181.26,456.68c6.01-10.16,12.02-20.33,18.02-30.49c0.84-1.42,1.68-2.85,2.53-4.27
				c1.64-2.78-3.44-5.89-5.16-3.16c-6.3,9.98-12.6,19.97-18.9,29.95c-0.88,1.4-1.77,2.8-2.65,4.2
				C173.38,455.65,179.61,459.46,181.26,456.68L181.26,456.68z"/>
		</g>
		<g>
			<path class="st8" d="M400.34,483.81c-2.4-6.29-4.8-12.59-7.2-18.88c-3.81-9.98-7.62-19.97-11.43-29.95
				c-0.88-2.3-1.75-4.6-2.63-6.9c-1.15-3.01-6.36-1.12-5.29,1.93c2.22,6.36,4.44,12.72,6.67,19.07
				c3.53,10.09,7.05,20.18,10.58,30.26c0.81,2.32,1.62,4.65,2.44,6.97C394.52,489.37,401.49,486.83,400.34,483.81L400.34,483.81z"/>
		</g>
		<g>
			<path class="st8" d="M407.11,468.47c-4.73-10.82-9.46-21.63-14.19-32.45c-0.66-1.52-1.33-3.03-1.99-4.55
				c-1.29-2.96-6.63-0.72-5.42,2.28c4.42,10.95,8.84,21.9,13.26,32.84c0.62,1.53,1.24,3.07,1.86,4.6
				C401.85,474.19,408.41,471.43,407.11,468.47L407.11,468.47z"/>
		</g>
		<g>
			<path class="st8" d="M421.8,471.39c-2.99-6.03-5.98-12.07-8.97-18.1c-4.75-9.57-9.49-19.15-14.24-28.72
				c-1.09-2.21-2.19-4.41-3.28-6.62c-1.43-2.89-6.41-0.51-5.06,2.42c2.82,6.12,5.64,12.23,8.45,18.35
				c4.47,9.71,8.94,19.41,13.41,29.12c1.03,2.24,2.06,4.47,3.09,6.71C416.55,477.48,423.23,474.28,421.8,471.39L421.8,471.39z"/>
		</g>
		<g>
			<path class="st8" d="M173.49,446.04c4.91-7.44,9.82-14.87,14.73-22.31c0.7-1.07,1.41-2.13,2.11-3.2c1.78-2.69-3.3-6.16-5.16-3.51
				c-5.12,7.29-10.25,14.58-15.37,21.87c-0.73,1.04-1.47,2.09-2.2,3.13C165.75,444.66,171.71,448.73,173.49,446.04L173.49,446.04z"
				/>
		</g>
		<g>
			<path class="st8" d="M428.28,457.08c-5.76-10.31-11.52-20.61-17.28-30.92c-0.81-1.44-1.61-2.89-2.42-4.33
				c-1.57-2.82-6.7-0.05-5.21,2.82c5.46,10.47,10.92,20.93,16.38,31.4c0.77,1.47,1.53,2.93,2.3,4.4
				C423.54,463.31,429.85,459.9,428.28,457.08L428.28,457.08z"/>
		</g>
		<g>
			<path class="st8" d="M437.16,445.77c-4.68-7.39-9.37-14.79-14.05-22.18c-0.68-1.07-1.35-2.14-2.03-3.2
				c-1.73-2.73-6.86,0.42-5.21,3.2c4.47,7.53,8.94,15.05,13.4,22.58c0.65,1.09,1.29,2.17,1.94,3.26
				C432.86,452.2,438.89,448.5,437.16,445.77L437.16,445.77z"/>
		</g>
		<g>
			<path class="st8" d="M443.34,434.5c-3.05-4.34-6.1-8.67-9.14-13.01c-0.43-0.61-0.86-1.23-1.29-1.84
				c-0.78-1.11-2.62-1.22-4.02-0.27c-1.4,0.96-1.96,2.7-1.22,3.83c2.92,4.42,5.84,8.85,8.76,13.27c0.41,0.63,0.83,1.25,1.24,1.88
				c0.75,1.13,2.71,1.22,4.26,0.16C443.48,437.47,444.12,435.61,443.34,434.5L443.34,434.5z"/>
		</g>
	</g>
</g>
<path class="st5" d="M156.36,340.14c-0.28-0.34-0.52-0.65-0.73-0.91c-3.97-5-17.05-22.05-26.25-46.02
	c-18.18-47.35-9.74-91.78-5.12-110.26C88.24,167.5,52.22,152.04,16.2,136.59c-1.39,4.42-3.24,10.69-5.1,18.29
	c-9.65,39.48-9,72.12-8.2,86.82c0.61,11.11,3.5,52.41,24.09,101.36c12.12,28.81,26.24,50.46,35.46,63.13
	c1.24-0.69,2.48-1.39,3.72-2.08c9.28-8.14,19.44-15.08,29.82-21.76c0.42-0.27,0.83-0.46,1.24-0.6c15.75-12.53,32.1-24.28,49.26-34.8
	C149.74,344.61,153.02,342.32,156.36,340.14z"/>
</svg>
